<svg id="svg" version="1.1" xmlns="http://www.w3.org/2000/svg" xmlns:xlink="http://www.w3.org/1999/xlink" width="400" height="400" viewBox="0, 0, 400,400"><g id="svgg"><path id="path0" d="M187.611 54.786 C 187.495 54.973,186.276 55.228,184.904 55.351 C 178.398 55.933,174.358 56.693,168.148 58.504 C 162.630 60.113,161.891 60.359,159.815 61.290 C 158.796 61.747,157.546 62.250,157.037 62.409 C 156.528 62.569,154.835 63.341,153.275 64.127 C 151.716 64.913,150.346 65.556,150.233 65.556 C 150.119 65.556,148.514 66.472,146.667 67.593 C 144.819 68.713,143.146 69.630,142.950 69.630 C 142.753 69.630,142.593 69.760,142.593 69.920 C 142.593 70.080,142.051 70.527,141.389 70.914 C 139.848 71.813,136.674 74.148,134.082 76.288 C 125.018 83.771,118.276 91.711,111.590 102.778 C 110.520 104.549,106.998 111.916,105.924 114.630 C 105.279 116.259,104.611 117.926,104.441 118.333 C 104.270 118.741,103.851 120.074,103.508 121.296 C 103.166 122.519,102.665 124.269,102.394 125.185 C 101.173 129.329,100.830 131.140,99.561 140.185 C 98.887 144.987,98.968 155.948,99.716 161.111 C 101.134 170.905,101.124 170.858,102.851 176.667 C 104.486 182.167,105.053 183.741,106.351 186.384 C 106.525 186.738,106.667 187.200,106.667 187.411 C 106.667 187.898,109.747 194.181,111.658 197.593 C 113.522 200.921,118.136 207.713,119.543 209.199 C 119.800 209.471,120.458 210.304,121.005 211.051 C 125.443 217.112,137.157 226.994,146.852 232.855 C 148.517 233.862,156.609 237.738,158.333 238.354 C 159.352 238.718,160.352 239.126,160.556 239.259 C 161.059 239.590,163.789 240.522,166.481 241.283 C 167.704 241.628,169.120 242.046,169.630 242.210 C 172.166 243.029,175.404 243.706,179.259 244.222 C 181.602 244.535,184.769 244.991,186.296 245.234 C 190.998 245.982,197.583 246.060,201.296 245.412 C 203.130 245.092,206.130 244.635,207.963 244.397 C 214.664 243.526,215.259 243.401,221.852 241.476 C 224.430 240.723,226.529 239.995,228.333 239.225 C 228.741 239.051,229.977 238.563,231.080 238.140 C 233.945 237.040,238.325 234.889,241.025 233.256 C 242.302 232.484,243.443 231.852,243.560 231.852 C 244.184 231.852,250.538 227.310,255.926 223.012 C 260.037 219.733,266.748 212.583,270.748 207.222 C 271.659 206.000,272.489 204.917,272.592 204.815 C 272.694 204.713,272.982 204.296,273.231 203.889 C 279.127 194.257,280.512 191.642,282.758 185.895 C 283.507 183.977,284.264 182.074,284.439 181.667 C 284.615 181.259,285.038 179.926,285.380 178.704 C 285.723 177.481,286.170 175.981,286.376 175.370 C 287.303 172.608,288.334 166.995,288.894 161.667 C 289.108 159.630,289.444 157.580,289.641 157.112 C 290.112 155.996,290.106 144.496,289.634 143.111 C 289.433 142.520,289.104 140.454,288.903 138.519 C 288.379 133.466,287.127 126.728,286.354 124.793 C 286.156 124.296,285.717 122.889,285.379 121.667 C 284.854 119.768,284.261 118.109,282.599 113.889 C 282.236 112.966,280.229 108.646,278.879 105.881 C 277.239 102.521,270.965 92.759,269.625 91.481 C 269.518 91.380,268.324 89.963,266.971 88.333 C 262.780 83.284,249.807 71.481,248.448 71.481 C 248.356 71.481,246.941 70.600,245.302 69.522 C 241.882 67.271,233.786 63.166,229.444 61.481 C 227.815 60.849,226.148 60.192,225.741 60.021 C 225.333 59.851,223.917 59.422,222.593 59.068 C 221.269 58.715,219.519 58.213,218.704 57.955 C 215.040 56.791,209.511 55.816,203.984 55.359 C 202.407 55.229,201.022 54.970,200.907 54.783 C 200.632 54.339,187.885 54.341,187.611 54.786 M219.444 89.070 C 221.685 89.363,224.602 89.849,225.926 90.151 C 227.250 90.452,228.833 90.806,229.444 90.937 C 241.509 93.522,247.407 99.961,247.407 110.546 C 247.407 119.682,243.771 125.679,235.893 129.536 C 232.662 131.118,225.259 132.600,223.186 132.080 C 222.713 131.961,221.095 131.692,219.589 131.482 C 212.356 130.474,201.111 121.841,201.111 117.297 C 201.111 116.113,198.171 115.942,195.356 116.963 C 189.930 118.930,185.754 122.455,183.700 126.803 C 182.256 129.859,182.344 130.114,185.055 130.711 C 186.247 130.974,187.556 131.325,187.963 131.492 C 188.713 131.799,190.814 132.389,195.185 133.521 C 196.509 133.863,197.843 134.267,198.148 134.418 C 198.454 134.570,200.454 135.229,202.593 135.885 C 204.731 136.540,206.815 137.223,207.222 137.402 C 208.124 137.798,209.992 138.564,212.222 139.451 C 228.655 145.988,239.050 155.374,241.953 166.296 C 243.135 170.741,243.333 171.979,243.333 174.913 C 243.331 190.943,230.966 204.822,212.778 209.206 C 211.963 209.403,209.963 209.899,208.333 210.308 C 198.493 212.782,177.035 212.730,166.111 210.206 C 148.497 206.136,141.481 199.132,141.481 185.618 C 141.481 179.228,143.070 173.893,146.596 168.442 C 148.314 165.786,148.815 165.784,150.567 168.426 C 154.083 173.726,160.659 178.788,167.963 181.816 C 169.593 182.492,171.259 183.185,171.667 183.358 C 177.106 185.660,189.056 185.062,195.000 182.190 C 198.614 180.443,202.963 176.270,202.963 174.547 C 202.963 174.147,199.988 173.333,198.524 173.333 C 197.250 173.333,192.414 172.400,190.000 171.689 C 189.083 171.419,187.667 171.022,186.852 170.806 C 183.826 170.007,181.254 169.217,179.815 168.647 C 179.000 168.324,178.000 167.933,177.593 167.778 C 168.906 164.474,160.913 159.017,155.834 152.924 C 154.027 150.755,150.370 145.093,150.370 144.464 C 150.370 144.122,149.544 142.049,148.866 140.688 C 147.063 137.075,147.058 124.045,148.857 119.815 C 149.030 119.407,149.670 117.893,150.279 116.450 C 152.223 111.839,156.892 105.763,160.869 102.669 C 164.950 99.494,172.663 95.150,176.481 93.877 C 177.500 93.538,178.833 93.041,179.444 92.774 C 180.648 92.247,183.698 91.294,185.185 90.979 C 185.694 90.872,187.194 90.510,188.519 90.176 C 196.520 88.155,209.031 87.708,219.444 89.070 M340.699 172.265 C 340.166 172.461,326.250 186.710,309.773 203.931 L 279.815 235.241 271.067 250.491 C 266.256 258.878,262.398 265.949,262.495 266.204 C 262.879 267.210,264.392 266.317,278.197 256.941 L 292.505 247.222 317.271 221.279 C 355.694 181.030,352.551 184.465,352.579 182.685 C 352.600 181.410,353.025 181.651,355.301 184.228 L 357.401 186.605 345.341 199.244 C 333.936 211.198,332.770 212.621,334.152 212.889 C 334.751 213.005,359.630 187.374,359.630 186.641 C 359.630 186.422,357.092 183.396,353.989 179.917 C 347.063 172.148,344.710 170.794,340.699 172.265 M345.556 174.474 C 349.394 176.212,351.971 180.876,350.506 183.435 C 350.155 184.049,335.230 199.858,332.337 202.682 L 330.538 204.437 325.795 199.684 L 321.052 194.931 325.989 189.768 C 328.704 186.929,333.009 182.381,335.556 179.661 C 341.349 173.473,342.279 172.991,345.556 174.474 M329.005 206.194 C 328.805 206.624,291.757 245.185,291.546 245.183 C 291.409 245.182,289.137 243.131,286.498 240.624 L 281.699 236.066 300.712 216.180 L 319.726 196.295 324.400 201.171 C 326.971 203.852,329.043 206.113,329.005 206.194 M286.037 242.769 C 289.107 245.636,289.889 246.558,289.533 246.887 C 288.501 247.842,266.977 262.286,266.821 262.129 C 266.727 262.036,269.770 256.532,273.581 249.897 C 280.440 237.960,280.520 237.842,281.297 238.455 C 281.729 238.795,283.862 240.737,286.037 242.769 M116.787 279.052 C 112.236 280.475,110.331 283.658,111.504 287.880 C 112.142 290.179,113.761 291.607,118.529 294.080 C 124.892 297.379,126.186 299.809,122.573 301.677 C 119.329 303.355,115.958 302.289,114.718 299.195 C 113.782 296.858,112.905 296.354,111.389 297.281 C 110.624 297.749,111.102 302.872,111.963 303.436 C 117.151 306.835,126.498 305.376,128.379 300.873 C 130.217 296.475,127.918 292.834,121.301 289.666 C 115.852 287.057,114.578 285.293,116.497 283.012 C 118.854 280.211,123.164 281.062,124.403 284.571 C 125.048 286.401,125.431 287.022,125.822 286.872 C 126.116 286.759,126.677 286.667,127.067 286.667 C 127.707 286.667,127.778 286.379,127.778 283.767 L 127.778 280.867 126.019 280.066 C 122.642 278.529,119.547 278.189,116.787 279.052 M132.077 279.845 C 131.574 281.155,131.865 281.745,133.295 282.306 L 134.737 282.873 134.884 290.418 C 135.113 302.141,137.167 305.207,144.800 305.224 C 152.356 305.241,154.172 302.473,154.377 290.632 L 154.510 282.931 155.978 282.343 C 157.299 281.815,157.436 281.639,157.335 280.600 L 157.222 279.444 153.080 279.340 L 148.938 279.235 148.821 280.451 C 148.714 281.561,148.832 281.719,150.185 282.272 L 151.667 282.877 151.665 290.049 C 151.662 300.093,150.582 302.217,145.476 302.221 C 140.887 302.224,140.005 300.264,140.002 290.063 L 140.000 282.903 141.507 282.311 C 142.742 281.826,142.977 281.581,142.809 280.952 C 142.695 280.530,142.600 279.977,142.598 279.722 C 142.589 278.952,132.374 279.071,132.077 279.845 M161.715 280.093 C 161.331 281.526,161.442 281.724,162.963 282.321 C 164.717 283.010,164.673 282.002,163.404 292.590 L 162.405 300.920 161.110 301.552 C 160.398 301.900,159.686 302.236,159.528 302.299 C 159.371 302.362,159.350 302.954,159.482 303.614 L 159.722 304.815 163.750 304.815 C 166.723 304.815,167.779 304.694,167.783 304.352 C 167.786 304.097,167.882 303.537,167.998 303.108 C 168.171 302.462,167.944 302.221,166.696 301.722 C 165.865 301.389,165.185 300.991,165.186 300.836 C 165.186 300.682,165.519 297.972,165.926 294.815 C 166.333 291.657,166.671 288.824,166.678 288.519 C 166.699 287.487,167.289 288.906,170.228 297.060 C 173.588 306.386,173.030 305.393,174.680 304.972 C 175.989 304.638,176.058 304.528,177.574 300.370 C 178.428 298.028,179.844 294.146,180.721 291.744 C 181.597 289.342,182.389 287.450,182.479 287.541 C 182.715 287.777,184.028 300.875,183.846 301.175 C 183.763 301.312,183.186 301.536,182.563 301.673 C 181.279 301.955,180.928 302.553,181.263 303.890 L 181.496 304.815 186.674 304.815 L 191.852 304.815 191.852 303.516 C 191.852 302.345,191.705 302.157,190.370 301.623 C 189.293 301.192,188.887 300.814,188.882 300.238 C 188.878 299.801,188.546 296.194,188.143 292.222 C 187.152 282.426,187.106 283.022,188.905 282.315 C 189.914 281.919,190.336 281.557,190.201 281.204 C 190.090 280.916,190.000 280.360,190.000 279.970 C 190.000 279.315,189.699 279.259,186.189 279.259 L 182.378 279.259 178.874 288.796 C 175.809 297.139,175.356 298.148,175.255 296.852 C 175.192 296.037,173.798 291.745,172.157 287.315 L 169.173 279.259 165.555 279.259 C 162.117 279.259,161.927 279.301,161.715 280.093 M197.037 280.502 C 197.037 281.630,197.197 281.835,198.471 282.345 C 199.643 282.814,199.881 283.076,199.770 283.774 C 199.625 284.690,197.778 300.508,197.778 300.835 C 197.778 300.943,197.101 301.302,196.273 301.633 C 194.900 302.182,194.779 302.339,194.884 303.432 L 195.000 304.630 199.074 304.630 L 203.148 304.630 203.264 303.432 C 203.368 302.348,203.244 302.180,201.946 301.661 L 200.513 301.088 201.339 294.711 C 201.793 291.203,202.184 288.250,202.207 288.148 C 202.231 288.046,203.657 291.779,205.376 296.442 C 208.966 306.181,208.505 305.340,210.090 305.042 L 211.325 304.811 214.437 296.272 C 216.149 291.576,217.656 287.668,217.786 287.588 C 217.977 287.470,219.280 298.984,219.264 300.651 C 219.261 300.907,218.627 301.370,217.853 301.680 C 216.548 302.202,216.458 302.334,216.598 303.529 L 216.748 304.815 221.863 304.815 L 226.978 304.815 227.220 303.713 C 227.527 302.318,227.302 301.969,225.899 301.661 C 224.388 301.329,224.295 300.977,223.553 292.778 C 223.203 288.907,222.824 285.122,222.710 284.367 C 222.510 283.039,222.554 282.972,224.029 282.382 C 225.156 281.931,225.554 281.564,225.550 280.978 C 225.538 279.378,225.143 279.225,221.318 279.338 L 217.697 279.444 214.231 288.847 C 210.339 299.400,210.370 299.336,210.370 296.800 C 210.370 295.414,209.658 293.041,207.488 287.202 L 204.606 279.444 200.821 279.339 L 197.037 279.233 197.037 280.502 M231.476 279.722 C 231.474 279.977,231.378 280.533,231.264 280.958 C 231.090 281.604,231.335 281.837,232.757 282.380 L 234.457 283.029 234.358 291.978 L 234.259 300.926 232.672 301.643 C 231.624 302.117,231.152 302.536,231.283 302.877 C 231.392 303.161,231.481 303.714,231.481 304.104 C 231.481 304.771,231.802 304.815,236.660 304.815 L 241.838 304.815 242.066 303.905 C 242.401 302.572,242.140 302.138,240.718 301.659 L 239.444 301.231 239.345 292.096 L 239.246 282.962 240.734 282.367 C 242.212 281.776,242.510 281.181,241.997 279.845 C 241.700 279.071,231.485 278.952,231.476 279.722 M246.151 279.845 C 245.644 281.166,245.939 281.745,247.414 282.324 L 248.902 282.909 248.803 292.070 L 248.704 301.231 247.407 301.667 C 246.594 301.941,246.123 302.332,246.142 302.718 C 246.256 304.991,245.764 304.815,251.995 304.815 L 257.694 304.815 257.877 303.611 C 258.101 302.138,258.216 302.257,256.050 301.705 L 254.259 301.249 254.155 297.106 L 254.050 292.963 256.059 292.963 C 258.057 292.963,258.071 292.971,258.660 294.444 C 259.263 295.951,259.530 296.091,261.031 295.689 C 261.852 295.469,261.873 295.353,261.771 291.528 L 261.667 287.593 260.476 287.478 C 259.417 287.375,259.214 287.517,258.624 288.774 C 257.993 290.116,257.866 290.191,256.017 290.297 L 254.074 290.409 254.074 286.130 L 254.074 281.852 257.388 281.852 L 260.703 281.852 261.351 283.907 C 261.966 285.858,262.056 285.956,263.129 285.851 L 264.259 285.741 264.366 282.500 L 264.473 279.259 255.424 279.259 C 247.515 279.259,246.347 279.333,246.151 279.845 M266.162 280.083 C 265.766 281.561,265.894 281.780,267.462 282.302 C 268.923 282.789,269.178 283.121,272.661 289.062 L 276.324 295.309 276.218 298.271 L 276.111 301.232 274.934 301.635 C 273.348 302.177,273.223 302.357,273.513 303.677 L 273.763 304.815 278.918 304.815 C 283.754 304.815,284.074 304.771,284.074 304.104 C 284.074 303.714,284.167 303.152,284.280 302.857 C 284.422 302.487,284.017 302.132,282.984 301.718 L 281.481 301.117 281.481 296.944 L 281.481 292.771 284.349 287.863 C 287.011 283.307,287.331 282.912,288.813 282.346 C 290.268 281.790,290.399 281.635,290.297 280.591 L 290.185 279.444 285.926 279.444 L 281.667 279.444 281.556 280.571 C 281.461 281.542,281.627 281.784,282.755 282.322 L 284.064 282.946 281.793 286.751 C 278.872 291.644,278.519 292.039,278.519 290.406 C 278.519 289.307,277.666 287.577,275.259 283.795 C 274.755 283.003,274.797 282.933,276.090 282.392 C 277.306 281.884,277.440 281.696,277.337 280.634 L 277.222 279.444 271.805 279.342 C 266.442 279.241,266.385 279.248,266.162 280.083 " stroke="none" fill="#242323" fill-rule="evenodd"></path><path id="path1" d="M195.741 89.648 C 192.723 89.917,189.720 90.524,185.741 91.671 C 184.519 92.023,183.102 92.390,182.593 92.486 C 182.083 92.582,181.141 92.895,180.500 93.182 C 179.858 93.469,179.181 93.704,178.995 93.704 C 178.809 93.704,177.793 94.120,176.738 94.630 C 175.682 95.139,174.650 95.556,174.444 95.556 C 173.952 95.556,166.462 99.464,165.926 100.000 C 165.824 100.102,164.746 100.852,163.530 101.667 C 157.173 105.927,152.742 111.941,149.204 121.111 C 148.383 123.238,148.507 137.408,149.368 139.815 C 152.184 147.690,157.004 154.268,163.519 159.125 C 164.741 160.036,165.998 160.992,166.313 161.248 C 166.627 161.504,167.127 161.823,167.424 161.956 C 167.720 162.089,168.796 162.696,169.815 163.303 C 172.158 164.701,174.764 165.926,175.396 165.926 C 175.663 165.926,175.977 166.080,176.094 166.268 C 176.210 166.456,176.803 166.719,177.412 166.853 C 178.020 166.986,178.519 167.230,178.519 167.395 C 178.519 167.559,178.977 167.777,179.537 167.879 C 180.097 167.980,181.056 168.239,181.667 168.453 C 182.278 168.667,183.778 169.126,185.000 169.473 C 186.222 169.820,187.556 170.225,187.963 170.373 C 189.448 170.912,192.456 171.601,194.444 171.857 C 203.222 172.987,205.440 174.024,203.148 175.926 C 202.843 176.180,202.593 176.591,202.593 176.841 C 202.593 178.213,197.564 182.048,193.519 183.761 C 188.124 186.046,174.902 186.032,170.450 183.737 C 170.101 183.557,169.065 183.125,168.148 182.778 C 161.384 180.214,152.492 173.402,149.907 168.803 C 149.138 167.434,147.778 166.869,147.778 167.918 C 147.778 168.198,147.557 168.611,147.287 168.835 C 147.017 169.059,146.336 170.204,145.773 171.380 C 145.210 172.556,144.594 173.812,144.406 174.171 C 142.185 178.392,141.650 189.105,143.410 194.074 C 145.537 200.076,152.748 206.032,160.000 207.777 C 160.713 207.949,162.213 208.366,163.333 208.705 C 165.483 209.354,165.531 209.365,170.185 210.185 C 178.443 211.642,199.057 211.625,205.446 210.158 C 206.711 209.867,208.088 209.630,208.507 209.630 C 208.926 209.630,209.559 209.486,209.912 209.311 C 210.940 208.803,214.304 207.778,214.945 207.778 C 215.518 207.778,216.253 207.487,220.370 205.632 C 224.092 203.955,224.998 203.520,225.185 203.321 C 225.287 203.213,226.287 202.553,227.407 201.854 C 232.387 198.751,240.000 190.131,240.000 187.595 C 240.000 187.302,240.230 186.515,240.511 185.846 C 242.142 181.966,242.776 176.430,242.191 171.184 C 241.971 169.210,241.660 167.428,241.501 167.223 C 241.341 167.019,241.121 166.435,241.013 165.926 C 239.957 160.987,234.993 154.004,229.815 150.174 C 229.000 149.571,228.250 148.983,228.148 148.866 C 227.762 148.423,221.201 144.508,219.074 143.452 C 217.852 142.845,216.519 142.167,216.111 141.946 C 214.816 141.243,212.680 140.370,212.254 140.370 C 212.027 140.370,211.552 140.212,211.199 140.018 C 210.845 139.824,209.889 139.397,209.074 139.069 C 208.259 138.741,207.121 138.233,206.544 137.940 C 205.967 137.647,205.217 137.407,204.877 137.407 C 204.175 137.407,200.911 136.220,200.511 135.819 C 200.366 135.674,199.900 135.555,199.475 135.553 C 199.051 135.552,198.226 135.302,197.643 134.998 C 197.059 134.693,196.241 134.444,195.824 134.444 C 195.132 134.444,192.008 133.630,190.185 132.975 C 187.553 132.028,185.497 131.481,184.570 131.481 C 179.107 131.481,184.135 121.410,191.296 118.006 C 192.519 117.425,193.935 116.747,194.444 116.498 C 198.531 114.505,200.954 114.962,202.223 117.965 C 202.679 119.044,203.612 120.568,204.297 121.352 C 204.981 122.136,205.545 122.888,205.548 123.024 C 205.557 123.316,209.788 126.627,211.111 127.376 C 216.953 130.684,224.014 131.968,229.537 130.725 C 230.403 130.530,231.736 130.234,232.500 130.066 C 234.178 129.699,237.507 128.066,239.194 126.783 C 240.590 125.721,242.963 123.409,242.963 123.111 C 242.963 123.002,243.359 122.383,243.843 121.735 C 247.723 116.534,247.899 106.356,244.206 100.703 C 240.705 95.344,235.909 92.912,224.074 90.496 C 218.878 89.435,203.353 88.971,195.741 89.648 " stroke="none" fill="#fb8b04" fill-rule="evenodd"></path><path id="path2" d="M0.000 200.000 L 0.000 400.000 200.000 400.000 L 400.000 400.000 400.000 200.000 L 400.000 0.000 200.000 0.000 L 0.000 0.000 0.000 200.000 M208.889 55.088 C 212.362 55.528,215.911 56.255,216.754 56.699 C 217.108 56.885,217.630 57.037,217.915 57.037 C 218.415 57.037,220.368 57.569,224.259 58.765 C 226.223 59.369,228.284 60.176,229.347 60.759 C 229.701 60.953,230.247 61.111,230.561 61.111 C 231.312 61.111,239.178 64.932,242.136 66.734 C 243.413 67.512,244.533 68.148,244.625 68.148 C 244.913 68.148,248.327 70.540,248.457 70.833 C 248.525 70.986,248.752 71.111,248.961 71.111 C 251.696 71.111,268.250 87.642,273.517 95.633 C 274.630 97.322,275.692 98.885,275.877 99.106 C 276.963 100.408,283.333 112.873,283.333 113.696 C 283.333 113.890,283.569 114.596,283.858 115.265 C 284.147 115.934,284.635 117.065,284.942 117.778 C 285.679 119.483,286.984 124.041,288.337 129.630 C 289.974 136.392,290.563 157.835,289.329 165.741 C 288.722 169.630,288.099 172.397,287.748 172.759 C 287.561 172.953,287.407 173.465,287.407 173.897 C 287.407 174.329,287.175 175.421,286.890 176.323 C 286.606 177.225,286.079 178.963,285.720 180.185 C 285.360 181.407,284.946 182.657,284.800 182.963 C 284.095 184.440,283.333 186.356,283.333 186.656 C 283.333 188.276,274.756 203.569,271.822 207.180 C 271.637 207.407,270.889 208.343,270.159 209.259 C 265.305 215.350,259.332 221.399,254.443 225.176 C 253.527 225.883,252.694 226.559,252.593 226.677 C 252.272 227.048,246.248 231.111,246.018 231.111 C 245.898 231.111,245.536 231.345,245.214 231.630 C 244.624 232.155,238.182 235.926,237.877 235.926 C 237.786 235.926,236.149 236.676,234.240 237.593 C 232.330 238.509,230.539 239.259,230.260 239.259 C 229.981 239.259,229.639 239.373,229.499 239.513 C 229.070 239.942,224.258 241.565,220.185 242.654 C 219.370 242.871,217.954 243.266,217.037 243.529 C 213.598 244.518,211.580 244.891,208.600 245.088 C 206.914 245.200,205.446 245.434,205.338 245.608 C 205.053 246.070,183.333 246.018,183.333 245.556 C 183.333 245.352,182.375 245.180,181.204 245.173 C 178.532 245.157,168.981 243.179,168.302 242.500 C 168.150 242.347,167.660 242.222,167.215 242.222 C 166.769 242.222,165.256 241.789,163.851 241.260 C 162.446 240.731,160.919 240.211,160.457 240.105 C 159.996 239.998,159.528 239.765,159.417 239.585 C 159.306 239.406,158.951 239.259,158.628 239.259 C 158.114 239.259,156.762 238.664,151.111 235.949 C 148.710 234.796,143.790 231.973,143.333 231.486 C 143.231 231.378,142.523 230.961,141.759 230.560 C 140.995 230.160,140.370 229.730,140.370 229.605 C 140.370 229.480,139.982 229.201,139.508 228.985 C 136.332 227.538,124.401 216.496,119.738 210.688 C 117.017 207.297,113.333 202.005,113.333 201.484 C 113.333 201.279,113.205 201.111,113.047 201.111 C 112.890 201.111,112.435 200.486,112.036 199.722 C 111.637 198.958,110.683 197.289,109.915 196.012 C 109.147 194.735,108.519 193.518,108.519 193.307 C 108.519 193.096,108.043 192.057,107.462 190.998 C 106.882 189.940,105.954 187.824,105.400 186.296 C 104.847 184.769,104.185 183.102,103.928 182.593 C 103.466 181.674,103.184 180.767,102.029 176.481 C 101.699 175.259,101.205 173.426,100.930 172.407 C 98.022 161.637,97.777 143.633,100.347 129.661 C 100.549 128.557,100.888 127.482,101.099 127.272 C 101.309 127.061,101.481 126.559,101.481 126.156 C 101.481 125.753,101.641 124.911,101.835 124.286 C 102.030 123.660,102.452 122.231,102.774 121.111 C 103.335 119.157,103.963 117.455,105.050 114.944 C 105.328 114.302,105.556 113.654,105.556 113.504 C 105.556 113.272,107.980 107.970,108.852 106.296 C 111.599 101.025,115.947 94.254,118.960 90.560 C 122.782 85.873,128.300 80.192,132.037 77.097 C 133.667 75.748,135.083 74.556,135.185 74.449 C 136.105 73.484,143.419 68.542,146.667 66.691 C 149.829 64.889,157.738 61.111,158.350 61.111 C 158.652 61.111,159.188 60.953,159.542 60.759 C 159.896 60.565,160.769 60.172,161.481 59.885 C 162.194 59.598,163.268 59.162,163.867 58.916 C 164.467 58.671,165.633 58.327,166.460 58.152 C 167.287 57.978,168.880 57.563,170.000 57.230 C 173.431 56.210,178.540 55.187,180.334 55.159 C 181.271 55.145,182.370 54.986,182.778 54.807 C 183.724 54.390,205.210 54.621,208.889 55.088 M347.185 172.899 C 348.183 173.440,349.767 174.785,350.704 175.889 C 351.641 176.993,354.114 179.801,356.200 182.129 C 359.192 185.468,359.920 186.490,359.654 186.977 C 359.358 187.515,341.787 206.074,336.524 211.405 C 334.567 213.388,333.333 213.710,333.333 212.239 C 333.333 211.884,338.625 206.046,345.093 199.266 C 351.560 192.486,356.896 186.829,356.949 186.696 C 357.002 186.563,356.188 185.492,355.140 184.316 L 353.235 182.178 352.554 183.697 C 352.180 184.532,350.575 186.584,348.987 188.256 C 347.400 189.928,334.004 203.963,319.219 219.444 L 292.337 247.593 278.136 257.200 C 264.377 266.509,262.570 267.541,262.306 266.239 C 262.237 265.902,266.066 258.827,270.813 250.516 L 279.444 235.407 304.630 209.075 C 318.481 194.593,331.898 180.524,334.444 177.812 C 340.772 171.072,342.546 170.388,347.185 172.899 M341.225 174.312 C 340.710 174.522,321.734 194.363,321.529 194.905 C 321.454 195.106,323.438 197.321,325.940 199.828 L 330.487 204.387 335.914 198.768 C 347.560 186.706,350.362 183.571,350.592 182.345 C 351.398 178.047,345.171 172.707,341.225 174.312 M300.686 216.412 L 281.928 236.103 285.686 239.664 C 287.753 241.623,289.945 243.645,290.556 244.159 L 291.667 245.092 307.593 228.451 C 316.352 219.298,324.753 210.473,326.262 208.839 L 329.005 205.868 324.416 201.267 C 321.891 198.737,319.740 196.679,319.635 196.694 C 319.530 196.709,311.003 205.582,300.686 216.412 M273.608 250.203 C 269.798 256.833,266.885 262.131,267.134 261.977 C 268.808 260.942,288.799 247.261,289.186 246.885 C 289.596 246.487,281.479 238.148,280.682 238.148 C 280.601 238.148,277.417 243.573,273.608 250.203 M125.787 279.839 L 127.963 280.926 128.071 283.777 L 128.179 286.627 126.839 286.879 C 125.230 287.181,125.088 287.048,124.250 284.444 C 123.438 281.922,123.350 281.864,120.261 281.858 C 113.681 281.843,114.308 286.138,121.380 289.530 C 127.423 292.428,129.233 294.803,128.805 299.264 C 128.285 304.670,120.081 307.354,113.426 304.296 L 111.111 303.232 111.111 300.178 C 111.111 297.323,111.166 297.109,111.944 296.900 C 113.652 296.443,113.901 296.631,114.811 299.064 C 116.002 302.250,118.482 303.120,122.164 301.647 C 126.111 300.067,124.787 297.376,118.524 294.251 C 112.354 291.172,110.882 289.348,111.185 285.160 C 111.608 279.313,119.199 276.547,125.787 279.839 M142.738 279.475 C 143.337 281.035,142.986 281.849,141.449 282.463 L 139.936 283.069 140.072 290.516 C 140.253 300.404,141.109 302.217,145.593 302.221 C 150.284 302.225,151.529 299.610,151.396 290.033 L 151.296 282.843 150.000 282.407 C 148.562 281.924,148.305 281.351,148.865 279.878 C 149.293 278.752,156.871 278.274,157.203 279.352 C 157.896 281.602,157.838 281.767,156.136 282.417 L 154.496 283.044 154.378 290.874 C 154.203 302.426,152.165 305.556,144.815 305.556 C 137.277 305.556,135.062 302.243,134.882 290.694 L 134.762 283.055 133.307 282.483 C 131.888 281.926,131.204 280.030,132.099 279.136 C 132.682 278.553,142.505 278.866,142.738 279.475 M172.162 286.944 C 173.803 291.375,175.196 295.666,175.258 296.480 C 175.356 297.773,175.788 296.813,178.674 288.888 C 180.491 283.898,182.136 279.606,182.330 279.352 C 183.047 278.412,189.873 278.736,190.137 279.722 C 190.593 281.426,190.396 281.848,188.855 282.464 C 187.365 283.060,187.343 283.096,187.540 284.591 C 187.651 285.427,188.010 289.111,188.338 292.778 C 189.111 301.414,188.974 300.917,190.777 301.638 C 192.067 302.154,192.268 302.375,192.082 303.068 C 191.961 303.520,191.860 304.097,191.857 304.352 C 191.853 304.701,190.536 304.815,186.522 304.815 L 181.192 304.815 181.037 303.487 C 180.892 302.243,180.971 302.124,182.293 301.595 C 183.345 301.174,183.704 300.818,183.704 300.193 C 183.704 299.215,182.617 288.496,182.466 287.991 C 182.410 287.803,180.962 291.515,179.248 296.240 L 176.131 304.831 174.695 305.218 C 172.951 305.687,173.594 306.802,170.197 297.407 C 168.614 293.028,167.205 289.232,167.065 288.972 C 166.926 288.712,166.518 291.046,166.158 294.157 C 165.798 297.269,165.429 300.079,165.339 300.402 C 165.221 300.821,165.606 301.131,166.680 301.486 C 168.103 301.956,168.179 302.054,168.074 303.306 L 167.963 304.630 163.919 304.735 C 159.571 304.849,159.276 304.735,159.265 302.929 C 159.260 302.128,159.505 301.896,160.741 301.525 C 161.556 301.281,162.222 301.004,162.222 300.910 C 162.222 300.660,164.026 285.586,164.223 284.196 C 164.375 283.119,164.267 282.973,162.935 282.439 C 161.650 281.925,161.481 281.714,161.481 280.620 C 161.481 278.909,161.529 278.889,165.577 278.889 L 169.179 278.889 172.162 286.944 M207.522 286.852 C 209.119 291.130,210.538 295.250,210.676 296.009 C 210.908 297.287,211.170 296.724,214.291 288.231 L 217.657 279.074 221.428 278.968 C 224.250 278.889,225.236 278.983,225.346 279.339 C 226.029 281.541,225.965 281.756,224.442 282.365 C 222.650 283.082,222.681 282.662,223.704 292.593 C 224.111 296.547,224.444 300.075,224.444 300.432 C 224.444 300.869,224.930 301.227,225.926 301.525 C 227.320 301.943,227.407 302.053,227.407 303.392 L 227.407 304.815 222.066 304.815 L 216.726 304.815 216.483 303.713 C 216.175 302.307,216.379 302.004,218.002 301.469 C 219.221 301.066,219.311 300.938,219.128 299.868 C 219.019 299.227,218.731 296.454,218.488 293.704 C 218.245 290.954,217.939 288.582,217.807 288.432 C 217.676 288.283,216.255 291.783,214.650 296.210 C 211.468 304.985,211.465 304.991,209.744 305.310 C 208.393 305.560,208.995 306.781,204.799 295.278 C 203.518 291.764,202.397 288.961,202.310 289.048 C 202.155 289.203,200.781 299.235,200.754 300.407 C 200.746 300.762,201.350 301.238,202.267 301.598 C 203.407 302.046,203.734 302.349,203.563 302.796 C 203.437 303.125,203.333 303.714,203.333 304.104 C 203.333 304.764,203.026 304.815,199.074 304.815 C 195.122 304.815,194.815 304.764,194.815 304.104 C 194.815 303.714,194.719 303.144,194.601 302.838 C 194.451 302.446,194.865 302.071,196.007 301.566 L 197.625 300.850 198.474 293.481 C 198.940 289.427,199.413 285.410,199.524 284.553 C 199.724 283.010,199.711 282.990,198.177 282.376 C 196.718 281.792,196.643 281.690,196.876 280.600 C 197.253 278.845,197.224 278.856,201.043 278.968 L 204.618 279.074 207.522 286.852 M242.018 279.352 C 242.712 281.607,242.656 281.766,240.925 282.427 L 239.259 283.064 239.259 292.056 L 239.259 301.049 240.741 301.543 C 241.556 301.815,242.222 302.162,242.222 302.315 C 242.222 302.468,242.222 303.093,242.222 303.704 L 242.222 304.815 236.891 304.815 C 231.166 304.815,231.111 304.796,231.111 302.806 C 231.111 302.150,231.432 301.873,232.593 301.525 L 234.074 301.081 234.074 292.062 L 234.074 283.043 232.593 282.451 C 231.087 281.848,230.890 281.418,231.345 279.722 C 231.611 278.730,241.718 278.379,242.018 279.352 M264.736 282.458 L 264.841 285.842 263.484 286.000 C 262.043 286.168,261.611 285.639,260.911 282.850 C 260.662 281.860,260.635 281.852,257.367 281.852 L 254.074 281.852 254.074 285.926 L 254.074 290.000 256.055 290.000 C 258.032 290.000,258.037 289.997,258.635 288.474 C 259.083 287.334,259.386 287.006,259.833 287.178 C 260.162 287.304,260.756 287.407,261.154 287.407 C 261.833 287.407,261.870 287.653,261.771 291.574 L 261.667 295.741 260.313 295.854 C 259.055 295.959,258.929 295.874,258.525 294.650 C 258.098 293.357,258.055 293.333,256.082 293.333 L 254.074 293.333 254.074 297.185 L 254.074 301.037 255.954 301.488 C 257.973 301.973,258.362 302.432,257.994 303.899 L 257.759 304.834 251.935 304.732 L 246.111 304.630 246.000 303.306 C 245.895 302.055,245.971 301.955,247.389 301.488 L 248.889 300.993 248.889 292.034 L 248.889 283.075 247.407 282.493 C 246.082 281.973,245.926 281.778,245.926 280.647 C 245.926 278.817,245.635 278.868,255.531 278.975 L 264.630 279.074 264.736 282.458 M277.203 279.352 C 277.885 281.566,277.821 281.824,276.446 282.398 C 274.903 283.043,274.886 282.942,277.180 286.650 C 278.120 288.168,278.889 289.835,278.889 290.353 C 278.890 291.050,279.520 290.248,281.300 287.285 C 283.896 282.965,283.904 282.919,282.234 282.227 C 281.111 281.762,281.047 281.426,281.686 279.352 C 281.844 278.837,289.823 278.662,290.120 279.167 C 291.085 280.807,290.767 281.742,288.995 282.479 C 287.307 283.180,287.067 283.471,284.348 288.116 L 281.481 293.013 281.481 297.033 L 281.481 301.054 282.773 301.480 C 284.360 302.004,284.565 302.312,284.257 303.713 L 284.015 304.815 278.674 304.815 L 273.333 304.815 273.333 303.392 C 273.333 302.053,273.421 301.943,274.815 301.525 L 276.296 301.081 276.296 298.312 L 276.296 295.543 272.704 289.385 C 269.383 283.690,268.992 283.174,267.519 282.522 C 265.967 281.835,265.258 280.051,266.173 279.136 C 266.658 278.650,277.050 278.854,277.203 279.352 " stroke="none" fill="#fbfbfb" fill-rule="evenodd"></path><path id="path3" d="M195.556 88.868 C 193.009 89.253,189.843 89.841,188.519 90.176 C 187.194 90.510,185.694 90.872,185.185 90.979 C 183.698 91.294,180.648 92.247,179.444 92.774 C 178.833 93.041,177.500 93.538,176.481 93.877 C 172.663 95.150,164.950 99.494,160.869 102.669 C 156.892 105.763,152.223 111.839,150.279 116.450 C 149.670 117.893,149.030 119.407,148.857 119.815 C 147.058 124.045,147.063 137.075,148.866 140.688 C 149.544 142.049,150.370 144.122,150.370 144.464 C 150.370 145.093,154.027 150.755,155.834 152.924 C 160.913 159.017,168.906 164.474,177.593 167.778 C 178.000 167.933,179.000 168.324,179.815 168.647 C 181.254 169.217,183.826 170.007,186.852 170.806 C 187.667 171.022,189.083 171.419,190.000 171.689 C 192.414 172.400,197.250 173.333,198.524 173.333 C 199.988 173.333,202.963 174.147,202.963 174.547 C 202.963 176.270,198.614 180.443,195.000 182.190 C 189.056 185.062,177.106 185.660,171.667 183.358 C 171.259 183.185,169.593 182.492,167.963 181.816 C 160.659 178.788,154.083 173.726,150.567 168.426 C 148.815 165.784,148.314 165.786,146.596 168.442 C 143.070 173.893,141.481 179.228,141.481 185.618 C 141.481 199.132,148.497 206.136,166.111 210.206 C 177.035 212.730,198.493 212.782,208.333 210.308 C 209.963 209.899,211.963 209.403,212.778 209.206 C 230.966 204.822,243.331 190.943,243.333 174.913 C 243.333 171.979,243.135 170.741,241.953 166.296 C 239.050 155.374,228.655 145.988,212.222 139.451 C 209.992 138.564,208.124 137.798,207.222 137.402 C 206.815 137.223,204.731 136.540,202.593 135.885 C 200.454 135.229,198.454 134.570,198.148 134.418 C 197.843 134.267,196.509 133.863,195.185 133.521 C 190.814 132.389,188.713 131.799,187.963 131.492 C 187.556 131.325,186.247 130.974,185.055 130.711 C 182.344 130.114,182.256 129.859,183.700 126.803 C 185.754 122.455,189.930 118.930,195.356 116.963 C 198.171 115.942,201.111 116.113,201.111 117.297 C 201.111 121.841,212.356 130.474,219.589 131.482 C 221.095 131.692,222.713 131.961,223.186 132.080 C 225.259 132.600,232.662 131.118,235.893 129.536 C 243.771 125.679,247.407 119.682,247.407 110.546 C 247.407 99.961,241.509 93.522,229.444 90.937 C 228.833 90.806,227.250 90.452,225.926 90.151 C 218.034 88.354,203.125 87.725,195.556 88.868 M216.667 89.631 C 221.824 89.963,225.154 90.554,231.481 92.260 C 242.869 95.329,248.364 103.323,246.525 114.144 C 245.835 118.204,245.258 119.838,243.843 121.735 C 243.359 122.383,242.963 123.002,242.963 123.111 C 242.963 123.409,240.590 125.721,239.194 126.783 C 237.507 128.066,234.178 129.699,232.500 130.066 C 231.736 130.234,230.403 130.530,229.537 130.725 C 224.014 131.968,216.953 130.684,211.111 127.376 C 209.788 126.627,205.557 123.316,205.548 123.024 C 205.545 122.888,204.981 122.136,204.297 121.352 C 203.612 120.568,202.679 119.044,202.223 117.965 C 200.954 114.962,198.531 114.505,194.444 116.498 C 193.935 116.747,192.519 117.425,191.296 118.006 C 184.135 121.410,179.107 131.481,184.570 131.481 C 185.497 131.481,187.553 132.028,190.185 132.975 C 192.008 133.630,195.132 134.444,195.824 134.444 C 196.241 134.444,197.059 134.693,197.643 134.998 C 198.226 135.302,199.051 135.552,199.475 135.553 C 199.900 135.555,200.366 135.674,200.511 135.819 C 200.911 136.220,204.175 137.407,204.877 137.407 C 205.217 137.407,205.967 137.647,206.544 137.940 C 207.121 138.233,208.259 138.741,209.074 139.069 C 209.889 139.397,210.845 139.824,211.199 140.018 C 211.552 140.212,212.027 140.370,212.254 140.370 C 212.680 140.370,214.816 141.243,216.111 141.946 C 216.519 142.167,217.852 142.845,219.074 143.452 C 221.201 144.508,227.762 148.423,228.148 148.866 C 228.250 148.983,229.000 149.571,229.815 150.174 C 234.993 154.004,239.957 160.987,241.013 165.926 C 241.121 166.435,241.341 167.019,241.501 167.223 C 241.660 167.428,241.971 169.210,242.191 171.184 C 242.776 176.430,242.142 181.966,240.511 185.846 C 240.230 186.515,240.000 187.302,240.000 187.595 C 240.000 190.131,232.387 198.751,227.407 201.854 C 226.287 202.553,225.287 203.213,225.185 203.321 C 224.998 203.520,224.092 203.955,220.370 205.632 C 216.253 207.487,215.518 207.778,214.945 207.778 C 214.304 207.778,210.940 208.803,209.912 209.311 C 209.559 209.486,208.926 209.630,208.507 209.630 C 208.088 209.630,206.711 209.867,205.446 210.158 C 199.057 211.625,178.443 211.642,170.185 210.185 C 165.531 209.365,165.483 209.354,163.333 208.705 C 162.213 208.366,160.713 207.949,160.000 207.777 C 152.748 206.032,145.537 200.076,143.410 194.074 C 141.650 189.105,142.185 178.392,144.406 174.171 C 144.594 173.812,145.210 172.556,145.773 171.380 C 146.336 170.204,147.017 169.059,147.287 168.835 C 147.557 168.611,147.778 168.198,147.778 167.918 C 147.778 166.869,149.138 167.434,149.907 168.803 C 151.737 172.059,158.097 177.621,163.148 180.384 C 166.032 181.961,166.182 182.033,168.148 182.778 C 169.065 183.125,170.101 183.557,170.450 183.737 C 174.902 186.032,188.124 186.046,193.519 183.761 C 197.564 182.048,202.593 178.213,202.593 176.841 C 202.593 176.591,202.843 176.180,203.148 175.926 C 205.440 174.024,203.222 172.987,194.444 171.857 C 192.456 171.601,189.448 170.912,187.963 170.373 C 187.556 170.225,186.222 169.820,185.000 169.473 C 183.778 169.126,182.278 168.667,181.667 168.453 C 181.056 168.239,180.097 167.980,179.537 167.879 C 178.977 167.777,178.519 167.559,178.519 167.395 C 178.519 167.230,178.020 166.986,177.412 166.853 C 176.803 166.719,176.210 166.456,176.094 166.268 C 175.977 166.080,175.663 165.926,175.396 165.926 C 174.764 165.926,172.158 164.701,169.815 163.303 C 168.796 162.696,167.720 162.089,167.424 161.956 C 167.127 161.823,166.627 161.504,166.313 161.248 C 165.998 160.992,164.741 160.036,163.519 159.125 C 157.004 154.268,152.184 147.690,149.368 139.815 C 148.507 137.408,148.383 123.238,149.204 121.111 C 152.742 111.941,157.173 105.927,163.530 101.667 C 164.746 100.852,165.824 100.102,165.926 100.000 C 166.462 99.464,173.952 95.556,174.444 95.556 C 174.650 95.556,175.682 95.139,176.738 94.630 C 177.793 94.120,178.809 93.704,178.995 93.704 C 179.181 93.704,179.858 93.469,180.500 93.182 C 181.141 92.895,182.083 92.582,182.593 92.486 C 183.102 92.390,184.519 92.023,185.741 91.671 C 193.585 89.411,203.294 88.770,216.667 89.631 " stroke="none" fill="#ae630d" fill-rule="evenodd"></path><path id="path4" d="M182.778 54.815 C 182.370 54.990,181.271 55.145,180.334 55.159 C 178.540 55.187,173.431 56.210,170.000 57.230 C 168.880 57.563,167.287 57.978,166.460 58.152 C 165.633 58.327,164.467 58.671,163.867 58.916 C 163.268 59.162,162.194 59.598,161.481 59.885 C 160.769 60.172,159.896 60.565,159.542 60.759 C 159.188 60.953,158.652 61.111,158.350 61.111 C 157.738 61.111,149.829 64.889,146.667 66.691 C 143.419 68.542,136.105 73.484,135.185 74.449 C 135.083 74.556,133.667 75.748,132.037 77.097 C 128.300 80.192,122.782 85.873,118.960 90.560 C 115.947 94.254,111.599 101.025,108.852 106.296 C 107.980 107.970,105.556 113.272,105.556 113.504 C 105.556 113.654,105.328 114.302,105.050 114.944 C 103.963 117.455,103.335 119.157,102.774 121.111 C 102.452 122.231,102.030 123.660,101.835 124.286 C 101.641 124.911,101.481 125.753,101.481 126.156 C 101.481 126.559,101.309 127.061,101.099 127.272 C 100.136 128.235,98.901 138.368,98.646 147.407 C 98.365 157.386,99.126 165.728,100.930 172.407 C 101.205 173.426,101.699 175.259,102.029 176.481 C 103.184 180.767,103.466 181.674,103.928 182.593 C 104.185 183.102,104.847 184.769,105.400 186.296 C 105.954 187.824,106.882 189.940,107.462 190.998 C 108.043 192.057,108.519 193.096,108.519 193.307 C 108.519 193.518,109.147 194.735,109.915 196.012 C 110.683 197.289,111.637 198.958,112.036 199.722 C 112.435 200.486,112.890 201.111,113.047 201.111 C 113.205 201.111,113.333 201.279,113.333 201.484 C 113.333 202.005,117.017 207.297,119.738 210.688 C 124.401 216.496,136.332 227.538,139.508 228.985 C 139.982 229.201,140.370 229.480,140.370 229.605 C 140.370 229.730,140.995 230.160,141.759 230.560 C 142.523 230.961,143.231 231.378,143.333 231.486 C 143.790 231.973,148.710 234.796,151.111 235.949 C 156.762 238.664,158.114 239.259,158.628 239.259 C 158.951 239.259,159.306 239.406,159.417 239.585 C 159.528 239.765,159.996 239.998,160.457 240.105 C 160.919 240.211,162.446 240.731,163.851 241.260 C 165.256 241.789,166.769 242.222,167.215 242.222 C 167.660 242.222,168.150 242.347,168.302 242.500 C 168.981 243.179,178.532 245.157,181.204 245.173 C 182.375 245.180,183.333 245.352,183.333 245.556 C 183.333 245.774,184.583 245.916,186.389 245.902 C 189.880 245.876,189.369 245.370,185.488 245.011 C 179.444 244.451,173.096 243.330,169.630 242.210 C 169.120 242.046,167.704 241.628,166.481 241.283 C 163.789 240.522,161.059 239.590,160.556 239.259 C 160.352 239.126,159.352 238.718,158.333 238.354 C 156.609 237.738,148.517 233.862,146.852 232.855 C 137.157 226.994,125.443 217.112,121.005 211.051 C 120.458 210.304,119.800 209.471,119.543 209.199 C 118.136 207.713,113.522 200.921,111.658 197.593 C 109.747 194.181,106.667 187.898,106.667 187.411 C 106.667 187.200,106.525 186.738,106.351 186.384 C 105.053 183.741,104.486 182.167,102.851 176.667 C 101.124 170.858,101.134 170.905,99.716 161.111 C 98.968 155.948,98.887 144.987,99.561 140.185 C 100.830 131.140,101.173 129.329,102.394 125.185 C 102.665 124.269,103.166 122.519,103.508 121.296 C 103.851 120.074,104.270 118.741,104.441 118.333 C 104.611 117.926,105.279 116.259,105.924 114.630 C 106.998 111.916,110.520 104.549,111.590 102.778 C 118.276 91.711,125.018 83.771,134.082 76.288 C 136.674 74.148,139.848 71.813,141.389 70.914 C 142.051 70.527,142.593 70.080,142.593 69.920 C 142.593 69.760,142.753 69.630,142.950 69.630 C 143.146 69.630,144.819 68.713,146.667 67.593 C 148.514 66.472,150.119 65.556,150.233 65.556 C 150.346 65.556,151.716 64.913,153.275 64.127 C 154.835 63.341,156.528 62.569,157.037 62.409 C 157.546 62.250,158.796 61.747,159.815 61.290 C 161.891 60.359,162.630 60.113,168.148 58.504 C 174.358 56.693,178.398 55.933,184.904 55.351 C 186.276 55.228,187.495 54.973,187.611 54.786 C 187.876 54.356,183.788 54.381,182.778 54.815 M200.887 54.751 C 201.013 54.955,202.407 55.229,203.984 55.359 C 209.511 55.816,215.040 56.791,218.704 57.955 C 219.519 58.213,221.269 58.715,222.593 59.068 C 223.917 59.422,225.333 59.851,225.741 60.021 C 226.148 60.192,227.815 60.849,229.444 61.481 C 233.786 63.166,241.882 67.271,245.302 69.522 C 246.941 70.600,248.356 71.481,248.448 71.481 C 249.807 71.481,262.780 83.284,266.971 88.333 C 268.324 89.963,269.518 91.380,269.625 91.481 C 270.965 92.759,277.239 102.521,278.879 105.881 C 280.229 108.646,282.236 112.966,282.599 113.889 C 284.261 118.109,284.854 119.768,285.379 121.667 C 285.717 122.889,286.156 124.296,286.354 124.793 C 287.133 126.742,288.379 133.470,288.919 138.632 C 289.127 140.629,289.446 142.629,289.626 143.076 C 290.565 145.407,289.522 134.525,288.337 129.630 C 286.985 124.045,285.679 119.483,284.942 117.778 C 284.635 117.065,284.147 115.934,283.858 115.265 C 283.569 114.596,283.333 113.890,283.333 113.696 C 283.333 112.873,276.963 100.408,275.877 99.106 C 275.692 98.885,274.630 97.322,273.517 95.633 C 268.250 87.642,251.696 71.111,248.961 71.111 C 248.752 71.111,248.525 70.986,248.457 70.833 C 248.327 70.540,244.913 68.148,244.625 68.148 C 244.533 68.148,243.413 67.512,242.136 66.734 C 239.178 64.932,231.312 61.111,230.561 61.111 C 230.247 61.111,229.701 60.953,229.347 60.759 C 228.284 60.176,226.223 59.369,224.259 58.765 C 220.195 57.516,218.404 57.037,217.797 57.037 C 217.447 57.037,217.040 56.916,216.892 56.768 C 215.942 55.819,200.330 53.851,200.887 54.751 M289.520 157.407 C 289.380 157.917,289.094 159.917,288.884 161.852 C 288.315 167.095,287.279 172.678,286.376 175.370 C 286.170 175.981,285.723 177.481,285.380 178.704 C 285.038 179.926,284.615 181.259,284.439 181.667 C 284.264 182.074,283.507 183.977,282.758 185.895 C 280.512 191.642,279.127 194.257,273.231 203.889 C 272.982 204.296,272.694 204.713,272.592 204.815 C 272.489 204.917,271.659 206.000,270.748 207.222 C 266.748 212.583,260.037 219.733,255.926 223.012 C 250.538 227.310,244.184 231.852,243.560 231.852 C 243.443 231.852,242.302 232.484,241.025 233.256 C 238.325 234.889,233.945 237.040,231.080 238.140 C 229.977 238.563,228.741 239.051,228.333 239.225 C 226.529 239.995,224.430 240.723,221.852 241.476 C 215.125 243.440,214.309 243.609,207.593 244.435 C 205.556 244.686,202.889 245.104,201.667 245.365 L 199.444 245.839 202.293 245.883 C 203.860 245.906,205.230 245.783,205.338 245.608 C 205.446 245.434,206.914 245.200,208.600 245.088 C 211.580 244.891,213.598 244.518,217.037 243.529 C 217.954 243.266,219.370 242.871,220.185 242.654 C 224.258 241.565,229.070 239.942,229.499 239.513 C 229.639 239.373,229.981 239.259,230.260 239.259 C 230.539 239.259,232.330 238.509,234.240 237.593 C 236.149 236.676,237.786 235.926,237.877 235.926 C 238.182 235.926,244.624 232.155,245.214 231.630 C 245.536 231.345,245.898 231.111,246.018 231.111 C 246.248 231.111,252.272 227.048,252.593 226.677 C 252.694 226.559,253.527 225.883,254.443 225.176 C 259.332 221.399,265.305 215.350,270.159 209.259 C 270.889 208.343,271.637 207.407,271.822 207.180 C 274.756 203.569,283.333 188.276,283.333 186.656 C 283.333 186.356,284.095 184.440,284.800 182.963 C 284.946 182.657,285.360 181.407,285.720 180.185 C 286.079 178.963,286.606 177.225,286.890 176.323 C 287.175 175.421,287.407 174.306,287.407 173.845 C 287.407 173.384,287.560 172.913,287.746 172.798 C 287.932 172.683,288.193 171.881,288.327 171.017 C 288.461 170.152,288.708 168.944,288.877 168.333 C 289.341 166.651,290.104 158.856,289.928 157.593 C 289.775 156.494,289.771 156.492,289.520 157.407 M337.579 174.537 L 335.741 176.481 337.685 174.644 C 339.492 172.936,339.799 172.593,339.523 172.593 C 339.465 172.593,338.590 173.468,337.579 174.537 M349.630 175.000 C 350.321 175.713,350.969 176.296,351.071 176.296 C 351.173 176.296,350.691 175.713,350.000 175.000 C 349.309 174.287,348.660 173.704,348.558 173.704 C 348.457 173.704,348.939 174.287,349.630 175.000 M338.322 176.759 L 336.111 179.074 338.426 176.863 C 339.699 175.648,340.741 174.606,340.741 174.549 C 340.741 174.275,340.375 174.609,338.322 176.759 M348.148 176.481 C 348.839 177.194,349.488 177.778,349.590 177.778 C 349.692 177.778,349.210 177.194,348.519 176.481 C 347.827 175.769,347.179 175.185,347.077 175.185 C 346.975 175.185,347.457 175.769,348.148 176.481 M331.481 180.926 C 329.964 182.454,328.806 183.704,328.907 183.704 C 329.009 183.704,330.334 182.454,331.852 180.926 C 333.369 179.398,334.528 178.148,334.426 178.148 C 334.324 178.148,332.999 179.398,331.481 180.926 M353.704 179.746 C 353.704 179.809,354.245 180.351,354.907 180.949 L 356.111 182.037 355.023 180.833 C 354.009 179.711,353.704 179.459,353.704 179.746 M332.582 182.870 L 330.185 185.370 332.685 182.974 C 334.060 181.655,335.185 180.530,335.185 180.474 C 335.185 180.201,334.808 180.548,332.582 182.870 M352.636 182.685 C 352.670 183.362,352.712 183.391,352.854 182.837 C 353.018 182.204,353.099 182.217,354.015 183.022 L 355.000 183.889 354.102 182.870 C 353.012 181.634,352.579 181.579,352.636 182.685 M357.037 183.449 C 357.037 183.513,357.579 184.055,358.241 184.653 L 359.444 185.741 358.357 184.537 C 357.343 183.415,357.037 183.163,357.037 183.449 M348.869 185.093 L 347.593 186.481 348.981 185.205 C 350.274 184.017,350.541 183.704,350.258 183.704 C 350.196 183.704,349.571 184.329,348.869 185.093 M349.797 187.130 L 348.333 188.704 349.907 187.240 C 351.371 185.878,351.652 185.556,351.371 185.556 C 351.311 185.556,350.603 186.264,349.797 187.130 M323.704 189.074 C 322.186 190.602,321.028 191.852,321.130 191.852 C 321.232 191.852,322.556 190.602,324.074 189.074 C 325.592 187.546,326.750 186.296,326.648 186.296 C 326.546 186.296,325.221 187.546,323.704 189.074 M324.990 190.833 L 322.407 193.519 325.093 190.936 C 326.569 189.515,327.778 188.307,327.778 188.251 C 327.778 187.979,327.389 188.339,324.990 190.833 M353.138 190.833 L 350.556 193.519 353.241 190.936 C 354.718 189.515,355.926 188.307,355.926 188.251 C 355.926 187.979,355.537 188.339,353.138 190.833 M343.505 190.833 L 341.667 192.778 343.611 190.940 C 345.418 189.232,345.725 188.889,345.449 188.889 C 345.390 188.889,344.515 189.764,343.505 190.833 M353.333 193.519 C 351.816 195.046,350.657 196.296,350.759 196.296 C 350.861 196.296,352.186 195.046,353.704 193.519 C 355.221 191.991,356.380 190.741,356.278 190.741 C 356.176 190.741,354.851 191.991,353.333 193.519 M343.693 193.611 L 341.296 196.111 343.796 193.714 C 345.171 192.396,346.296 191.271,346.296 191.214 C 346.296 190.942,345.919 191.289,343.693 193.611 M315.556 197.593 C 314.038 199.120,312.880 200.370,312.982 200.370 C 313.083 200.370,314.408 199.120,315.926 197.593 C 317.444 196.065,318.602 194.815,318.500 194.815 C 318.398 194.815,317.073 196.065,315.556 197.593 M335.547 199.167 L 332.407 202.407 335.648 199.267 C 338.658 196.351,339.058 195.926,338.788 195.926 C 338.733 195.926,337.274 197.384,335.547 199.167 M319.630 196.412 C 319.630 196.476,320.171 197.018,320.833 197.616 L 322.037 198.704 320.949 197.500 C 319.935 196.378,319.630 196.126,319.630 196.412 M345.360 198.981 L 342.778 201.667 345.463 199.084 C 347.957 196.685,348.317 196.296,348.046 196.296 C 347.989 196.296,346.781 197.505,345.360 198.981 M316.101 200.093 L 313.519 202.778 316.204 200.195 C 318.698 197.796,319.058 197.407,318.786 197.407 C 318.730 197.407,317.522 198.616,316.101 200.093 M335.926 201.667 C 334.408 203.194,333.250 204.444,333.352 204.444 C 333.454 204.444,334.779 203.194,336.296 201.667 C 337.814 200.139,338.972 198.889,338.870 198.889 C 338.768 198.889,337.444 200.139,335.926 201.667 M345.185 202.037 C 343.668 203.565,342.509 204.815,342.611 204.815 C 342.713 204.815,344.038 203.565,345.556 202.037 C 347.073 200.509,348.231 199.259,348.130 199.259 C 348.028 199.259,346.703 200.509,345.185 202.037 M307.407 206.111 C 305.890 207.639,304.732 208.889,304.833 208.889 C 304.935 208.889,306.260 207.639,307.778 206.111 C 309.295 204.583,310.454 203.333,310.352 203.333 C 310.250 203.333,308.925 204.583,307.407 206.111 M337.953 206.759 L 335.370 209.444 338.056 206.862 C 340.550 204.463,340.910 204.074,340.638 204.074 C 340.582 204.074,339.373 205.282,337.953 206.759 M308.148 208.333 C 306.631 209.861,305.472 211.111,305.574 211.111 C 305.676 211.111,307.001 209.861,308.519 208.333 C 310.036 206.806,311.194 205.556,311.093 205.556 C 310.991 205.556,309.666 206.806,308.148 208.333 M327.208 207.870 L 325.370 209.815 327.315 207.977 C 329.122 206.269,329.429 205.926,329.153 205.926 C 329.094 205.926,328.219 206.801,327.208 207.870 M327.953 210.093 L 325.370 212.778 328.056 210.195 C 330.550 207.796,330.910 207.407,330.638 207.407 C 330.582 207.407,329.373 208.616,327.953 210.093 M336.991 210.561 C 335.438 212.086,334.276 213.333,334.408 213.333 C 334.540 213.333,335.890 212.083,337.407 210.556 C 338.925 209.028,340.087 207.780,339.991 207.784 C 339.894 207.787,338.544 209.037,336.991 210.561 M299.259 214.630 C 297.742 216.157,296.583 217.407,296.685 217.407 C 296.787 217.407,298.112 216.157,299.630 214.630 C 301.147 213.102,302.306 211.852,302.204 211.852 C 302.102 211.852,300.777 213.102,299.259 214.630 M320.000 215.370 C 318.482 216.898,317.324 218.148,317.426 218.148 C 317.528 218.148,318.853 216.898,320.370 215.370 C 321.888 213.843,323.046 212.593,322.944 212.593 C 322.843 212.593,321.518 213.843,320.000 215.370 M300.175 216.759 L 297.593 219.444 300.278 216.862 C 302.772 214.463,303.132 214.074,302.860 214.074 C 302.804 214.074,301.596 215.282,300.175 216.759 M320.175 218.241 L 317.593 220.926 320.278 218.343 C 322.772 215.944,323.132 215.556,322.860 215.556 C 322.804 215.556,321.596 216.764,320.175 218.241 M291.111 223.148 C 289.594 224.676,288.435 225.926,288.537 225.926 C 288.639 225.926,289.964 224.676,291.481 223.148 C 292.999 221.620,294.157 220.370,294.056 220.370 C 293.954 220.370,292.629 221.620,291.111 223.148 M312.027 223.796 L 309.444 226.481 312.130 223.899 C 314.624 221.500,314.984 221.111,314.712 221.111 C 314.656 221.111,313.448 222.319,312.027 223.796 M292.397 224.907 L 289.815 227.593 292.500 225.010 C 294.994 222.611,295.354 222.222,295.083 222.222 C 295.026 222.222,293.818 223.431,292.397 224.907 M312.397 226.389 L 309.815 229.074 312.500 226.491 C 314.994 224.093,315.354 223.704,315.083 223.704 C 315.026 223.704,313.818 224.912,312.397 226.389 M282.963 231.667 C 281.445 233.194,280.287 234.444,280.389 234.444 C 280.491 234.444,281.816 233.194,283.333 231.667 C 284.851 230.139,286.009 228.889,285.907 228.889 C 285.806 228.889,284.481 230.139,282.963 231.667 M303.879 232.315 L 301.296 235.000 303.981 232.417 C 306.475 230.019,306.836 229.630,306.564 229.630 C 306.508 229.630,305.299 230.838,303.879 232.315 M284.444 233.148 C 282.927 234.676,281.769 235.926,281.870 235.926 C 281.972 235.926,283.297 234.676,284.815 233.148 C 286.332 231.620,287.491 230.370,287.389 230.370 C 287.287 230.370,285.962 231.620,284.444 233.148 M304.444 234.630 C 302.927 236.157,301.769 237.407,301.870 237.407 C 301.972 237.407,303.297 236.157,304.815 234.630 C 306.332 233.102,307.491 231.852,307.389 231.852 C 307.287 231.852,305.962 233.102,304.444 234.630 M285.556 239.815 C 286.662 240.935,287.651 241.852,287.752 241.852 C 287.854 241.852,287.032 240.935,285.926 239.815 C 284.819 238.694,283.831 237.778,283.729 237.778 C 283.627 237.778,284.449 238.694,285.556 239.815 M295.926 240.556 C 294.408 242.083,293.250 243.333,293.352 243.333 C 293.454 243.333,294.779 242.083,296.296 240.556 C 297.814 239.028,298.972 237.778,298.870 237.778 C 298.768 237.778,297.444 239.028,295.926 240.556 M283.318 240.463 C 284.853 242.098,285.185 242.392,285.185 242.114 C 285.185 242.055,284.394 241.263,283.426 240.355 L 281.667 238.704 283.318 240.463 M296.472 243.056 L 293.889 245.741 296.574 243.158 C 299.068 240.759,299.428 240.370,299.157 240.370 C 299.100 240.370,297.892 241.579,296.472 243.056 M288.426 245.203 C 289.364 246.226,289.532 246.616,289.186 246.963 C 288.941 247.207,288.837 247.407,288.955 247.407 C 290.025 247.407,289.852 246.305,288.603 245.157 L 287.222 243.889 288.426 245.203 M132.099 279.136 C 131.963 279.272,131.854 279.563,131.858 279.784 C 131.861 280.030,131.974 280.010,132.150 279.733 C 132.348 279.422,134.052 279.245,137.608 279.166 L 142.778 279.051 137.562 278.970 C 134.693 278.925,132.235 279.000,132.099 279.136 M150.370 279.128 C 153.437 279.401,157.326 279.423,157.166 279.167 C 157.071 279.014,155.211 278.917,153.034 278.951 C 150.856 278.985,149.657 279.065,150.370 279.128 M161.609 279.460 C 161.489 279.775,161.494 280.136,161.621 280.263 C 161.748 280.390,161.852 280.222,161.852 279.889 C 161.852 279.378,162.433 279.267,165.648 279.165 L 169.444 279.045 165.637 278.967 C 162.497 278.903,161.790 278.989,161.609 279.460 M184.352 279.162 C 185.421 279.237,187.171 279.237,188.241 279.162 C 189.310 279.087,188.435 279.026,186.296 279.026 C 184.157 279.026,183.282 279.087,184.352 279.162 M198.333 279.125 C 200.923 279.398,204.733 279.423,204.574 279.167 C 204.479 279.014,202.786 278.916,200.811 278.948 C 198.837 278.981,197.722 279.060,198.333 279.125 M217.656 279.154 C 217.557 279.314,219.152 279.391,221.200 279.326 C 223.973 279.238,225.012 279.333,225.268 279.696 C 225.539 280.081,225.580 280.067,225.461 279.630 C 225.296 279.022,218.014 278.578,217.656 279.154 M236.466 279.161 C 239.992 279.243,241.739 279.425,241.958 279.733 C 242.189 280.059,242.236 280.029,242.127 279.630 C 242.002 279.169,241.059 279.071,236.636 279.057 L 231.296 279.041 236.466 279.161 M246.100 279.277 C 245.963 279.498,245.952 279.779,246.074 279.901 C 246.196 280.023,246.296 279.929,246.296 279.691 C 246.296 279.374,248.710 279.259,255.397 279.259 L 264.497 279.259 264.378 282.593 C 264.313 284.427,264.391 285.927,264.551 285.927 C 264.711 285.926,264.795 284.384,264.736 282.500 L 264.630 279.074 255.489 278.975 C 249.222 278.907,246.270 279.002,246.100 279.277 M266.054 279.460 C 265.933 279.775,265.938 280.136,266.065 280.263 C 266.192 280.390,266.296 280.208,266.296 279.858 C 266.296 279.281,266.804 279.232,271.817 279.333 C 274.854 279.394,277.261 279.319,277.166 279.167 C 276.795 278.569,266.289 278.846,266.054 279.460 M281.724 279.167 C 281.629 279.319,283.520 279.444,285.926 279.444 C 288.331 279.444,290.222 279.319,290.128 279.167 C 290.034 279.014,288.143 278.889,285.926 278.889 C 283.709 278.889,281.818 279.014,281.724 279.167 M127.905 283.889 C 127.906 285.519,127.971 286.139,128.049 285.268 C 128.128 284.397,128.127 283.064,128.047 282.305 C 127.967 281.547,127.903 282.259,127.905 283.889 M119.541 281.743 C 120.002 281.832,120.669 281.829,121.023 281.736 C 121.377 281.643,121.000 281.571,120.185 281.575 C 119.370 281.579,119.081 281.655,119.541 281.743 M151.481 289.369 L 151.665 296.111 151.767 289.657 C 151.824 286.108,151.741 283.074,151.583 282.916 C 151.425 282.757,151.379 285.662,151.481 289.369 M222.735 283.127 C 222.622 283.420,222.595 283.962,222.675 284.330 C 222.766 284.748,222.892 284.548,223.013 283.796 C 223.214 282.535,223.083 282.219,222.735 283.127 M234.234 291.852 C 234.234 296.843,234.287 298.884,234.351 296.389 C 234.415 293.894,234.415 289.810,234.351 287.315 C 234.287 284.819,234.234 286.861,234.234 291.852 M278.604 290.370 C 278.604 291.083,278.681 291.375,278.774 291.019 C 278.867 290.662,278.867 290.079,278.774 289.722 C 278.681 289.366,278.604 289.657,278.604 290.370 M254.907 290.265 C 255.468 290.350,256.384 290.350,256.944 290.265 C 257.505 290.180,257.046 290.111,255.926 290.111 C 254.806 290.111,254.347 290.180,254.907 290.265 M255.099 293.231 C 255.765 293.314,256.765 293.312,257.321 293.228 C 257.878 293.143,257.333 293.076,256.111 293.078 C 254.889 293.080,254.434 293.149,255.099 293.231 M210.370 296.852 C 210.370 297.836,210.487 298.525,210.630 298.382 C 210.904 298.109,210.828 295.520,210.539 295.230 C 210.446 295.137,210.370 295.867,210.370 296.852 M136.667 301.968 C 136.667 302.031,137.208 302.573,137.870 303.171 L 139.074 304.259 137.986 303.056 C 136.972 301.934,136.667 301.682,136.667 301.968 M117.500 305.440 C 117.856 305.534,118.440 305.534,118.796 305.440 C 119.153 305.347,118.861 305.271,118.148 305.271 C 117.435 305.271,117.144 305.347,117.500 305.440 M120.093 305.440 C 120.449 305.534,121.032 305.534,121.389 305.440 C 121.745 305.347,121.454 305.271,120.741 305.271 C 120.028 305.271,119.736 305.347,120.093 305.440 M143.056 305.440 C 143.412 305.534,143.995 305.534,144.352 305.440 C 144.708 305.347,144.417 305.271,143.704 305.271 C 142.991 305.271,142.699 305.347,143.056 305.440 " stroke="none" fill="#999999" fill-rule="evenodd"></path></g></svg>